{"title":"I Want Your Girl 2009.DvDRip.H264.Feel-Free","uid":6008231,"size":943683828,"categoryP":"video","categoryS":"movies","magnet":"?xt=urn:btih:eb0eb3dda3a28bd334556a57c5e253b18bfd1397&amp;dn=I+Want+Your+Girl+2009.DvDRip.H264.Feel-Free&amp;tr=udp%3A%2F%2Ftracker.openbittorrent.com%3A80&amp;tr=udp%3A%2F%2Fopen.demonii.com%3A1337&amp;tr=udp%3A%2F%2Ftracker.coppersurfer.tk%3A6969&amp;tr=udp%3A%2F%2Fexodus.desync.com%3A6969","seeders":0,"leechers":0,"uploader":"neon","files":9,"time":1291392379,"description":"Genre:Comedy | Drama\nLanguage:English\n &lt;a href=&quot; http://www.imdb.com/title/tt1339404/&quot; rel=&quot;nofollow&quot; target=&quot;_NEW&quot;&gt; http://www.imdb.com/title/tt1339404/&lt;/a&gt;\nSource:DVD\n\nGeneral\nComplete name .Want.Your.Girl.2009.DvDRip.H264.Feel-Free\nFormat : MPEG-4\nFormat profile : Base Media\nCodec ID : isom\nFile size : 898 MiB\nDuration : 1h 16mn\nOverall bit rate : 1 640 Kbps\nVideo #2\nCodec ID : avc1\nCodec ID/Info : Advanced Video Coding\nDuration : 1h 16mn\nBit rate mode : Variable\nBit rate : 1 563 Kbps\nWidth : 720 pixels\nHeight : 304 pixels\nDisplay aspect ratio : 2.35:1\nFrame rate mode : Constant\nFrame rate : 23.976 fps\nOriginal frame rate : 23.000 fps\nResolution : 24 bits\nColorimetry : 4:2:0\nScan type : Progressive\nBits/(Pixel*Frame) : 0.298\nStream size : 856 MiB (95%)\nAudio #1\nID : 1\nFormat : AAC\nFormat/Info : Advanced Audio Codec\nFormat version : Version 4\nFormat profile : LC\nFormat settings, SBR : No\nCodec ID : 40\nDuration : 1h 16mn\nBit rate mode : Constant\nBit rate : 160 Kbps\nChannel(s) : 6 channels\nChannel positions : Front: L C R, Rear: L R, LFE\nSampling rate : 48.0 KHz\nResolution : 16 bits\nStream size : 38.3 MiB (4%)\n\n\nPlot:\nA loving couple Laura and John get lost in the middle of nowhere during a thunderstorm, riding a scooter to a birthday party\n\n\n","torrent":{"xt":"urn:btih:eb0eb3dda3a28bd334556a57c5e253b18bfd1397","amp;dn":"I+Want+Your+Girl+2009.DvDRip.H264.Feel-Free","amp;tr":["udp%3A%2F%2Ftracker.openbittorrent.com%3A80","udp%3A%2F%2Fopen.demonii.com%3A1337","udp%3A%2F%2Ftracker.coppersurfer.tk%3A6969","udp%3A%2F%2Fexodus.desync.com%3A6969"],"infoHash":"eb0eb3dda3a28bd334556a57c5e253b18bfd1397","infoHashBuffer":{"type":"Buffer","data":[235,14,179,221,163,162,139,211,52,85,106,87,197,226,83,177,139,253,19,151]},"announce":[],"urlList":[]}}